<svg width="48" height="48" viewBox="0 0 48 48" xmlns="http://www.w3.org/2000/svg">
  <g fill="none" fill-rule="evenodd">
    <path d="M24 48c23.815 0 24-10.745 24-24S47.815 0 24 0 0 10.745 0 24s.185 24 24 24z" fill="#2867B2" fill-rule="nonzero"/>
    <path d="M29.635 29.634h-2.373v-3.713c0-.886-.015-2.025-1.233-2.025-1.235 0-1.424.965-1.424 1.962v3.776h-2.37v-7.636h2.275v1.044h.032c.317-.6 1.091-1.233 2.245-1.233 2.404 0 2.848 1.581 2.848 3.637v4.188zm-10.076-8.679a1.376 1.376 0 11-.002-2.751 1.376 1.376 0 01.002 2.751zm-1.188 8.68h2.375v-7.637h-2.375v7.636zM30.816 16H17.18c-.651 0-1.18.516-1.18 1.154v13.692c0 .637.529 1.154 1.18 1.154h13.636C31.47 32 32 31.483 32 30.846V17.154c0-.638-.531-1.154-1.184-1.154z" fill="#FFFFFE"/>
  </g>
</svg>
