<svg xmlns="http://www.w3.org/2000/svg" width="48" height="48" viewBox="0 0 48 48">
  <g fill="none" fill-rule="evenodd">
    <path fill="#1DA1F2" d="M24 48c23.815 0 24-10.745 24-24S47.815 0 24 0 0 10.745 0 24s.185 24 24 24z"/>
    <path fill="#FFF" d="M21.03 30.502c6.036 0 9.338-5.004 9.338-9.337 0-.141 0-.282-.006-.423A6.686 6.686 0 0 0 32 19.04a6.651 6.651 0 0 1-1.888.518 3.302 3.302 0 0 0 1.446-1.817 6.528 6.528 0 0 1-2.086.793 3.276 3.276 0 0 0-2.394-1.036 3.286 3.286 0 0 0-3.283 3.283c0 .256.032.505.083.749a9.32 9.32 0 0 1-6.764-3.43 3.29 3.29 0 0 0 1.018 4.384 3.32 3.32 0 0 1-1.486-.41v.044a3.289 3.289 0 0 0 2.63 3.22 3.2 3.2 0 0 1-.863.115c-.211 0-.416-.02-.615-.058a3.282 3.282 0 0 0 3.066 2.279 6.582 6.582 0 0 1-4.077 1.408c-.262 0-.525-.013-.78-.045a9.335 9.335 0 0 0 5.023 1.465"/>
  </g>
</svg>
