<svg xmlns="http://www.w3.org/2000/svg" width="48" height="48" viewBox="0 0 48 48">
  <defs>
    <linearGradient id="a" x1="50%" x2="50%" y1="100%" y2=".001%">
      <stop offset="0%" stop-color="#25CF43"/>
      <stop offset="100%" stop-color="#61FD7D"/>
    </linearGradient>
  </defs>
  <g fill="none" fill-rule="evenodd">
    <path fill="url(#a)" d="M24 48c23.815 0 24-10.745 24-24S47.815 0 24 0 0 10.745 0 24s.185 24 24 24z"/>
    <path fill="#FFF" d="M31.07 16.95a9.876 9.876 0 0 0-7.03-2.914c-5.478 0-9.935 4.456-9.938 9.933 0 1.751.457 3.46 1.327 4.967l-1.41 5.148 5.267-1.381a9.93 9.93 0 0 0 4.75 1.209h.004c5.476 0 9.935-4.457 9.937-9.934a9.873 9.873 0 0 0-2.908-7.029zm-7.03 15.283h-.004a8.248 8.248 0 0 1-4.204-1.15l-.301-.18-3.126.82.834-3.047-.196-.312a8.237 8.237 0 0 1-1.263-4.394c.002-4.553 3.707-8.256 8.263-8.256 2.206 0 4.28.86 5.84 2.421a8.206 8.206 0 0 1 2.416 5.842c-.002 4.552-3.707 8.256-8.26 8.256zm4.53-6.183c-.248-.124-1.47-.725-1.697-.808-.228-.083-.393-.124-.558.124-.166.249-.642.808-.787.973-.144.166-.29.187-.538.062-.248-.124-1.048-.386-1.996-1.232-.738-.658-1.236-1.47-1.382-1.72-.145-.248-.015-.382.11-.506.11-.111.247-.29.372-.435.124-.145.165-.248.248-.414.082-.166.041-.31-.02-.435-.063-.124-.56-1.346-.766-1.843-.202-.484-.407-.418-.559-.426-.144-.007-.31-.009-.476-.009a.912.912 0 0 0-.662.311c-.227.249-.869.85-.869 2.07 0 1.223.89 2.403 1.014 2.568.124.166 1.75 2.673 4.241 3.748.593.256 1.055.409 1.416.523.594.189 1.136.162 1.564.098.477-.07 1.469-.6 1.676-1.18.206-.58.206-1.077.144-1.18-.061-.103-.227-.165-.475-.29z"/>
  </g>
</svg>
